<svg xmlns="http://www.w3.org/2000/svg" version="1.1" xmlns:xlink="http://www.w3.org/1999/xlink" viewBox="0 0 200 200" width="200" height="200"><rect width="200" height="200" fill="url('#gradient')"></rect><defs><linearGradient id="gradient" gradientTransform="rotate(148 0.5 0.5)"><stop offset="0%" stop-color="#dbd4c9"></stop><stop offset="100%" stop-color="#2f9645"></stop></linearGradient></defs><g><g fill="#283855" transform="matrix(2.0827118644067797,0,0,2.0827118644067797,7.764995487746546,115.3011512294058)" stroke="#739bab" stroke-width="0.2"><path d="M12.95-14.22L12.95 0L9.54 0L4.50-8.85L4.50 0L1.07 0L1.07-14.22L4.50-14.22L9.53-5.37L9.53-14.22L12.95-14.22ZM21.36 0L21.26-1.14Q20.21 0.20 18.44 0.20L18.44 0.20Q16.70 0.20 15.81-0.82Q14.91-1.83 14.91-3.72L14.91-3.72L14.91-10.57L18.20-10.57L18.20-3.70Q18.20-2.34 19.52-2.34L19.52-2.34Q20.65-2.34 21.13-3.15L21.13-3.15L21.13-10.57L24.44-10.57L24.44 0L21.36 0ZM26.79-13.19L30.08-13.19L30.08-10.57L31.82-10.57L31.82-8.28L30.08-8.28L30.08-3.45Q30.08-2.85 30.29-2.62Q30.51-2.38 31.14-2.38L31.14-2.38Q31.63-2.38 31.96-2.44L31.96-2.44L31.96-0.09Q31.07 0.20 30.11 0.20L30.11 0.20Q28.41 0.20 27.60-0.61Q26.79-1.41 26.79-3.04L26.79-3.04L26.79-8.28L25.44-8.28L25.44-10.57L26.79-10.57L26.79-13.19ZM39.56-10.64L39.50-7.59L38.42-7.67Q36.87-7.67 36.43-6.69L36.43-6.69L36.43 0L33.13 0L33.13-10.57L36.22-10.57L36.33-9.21Q37.16-10.76 38.64-10.76L38.64-10.76Q39.17-10.76 39.56-10.64L39.56-10.64ZM44.16-10.57L44.16 0L40.86 0L40.86-10.57L44.16-10.57ZM40.66-13.29L40.66-13.29Q40.66-13.99 41.17-14.44Q41.68-14.89 42.49-14.89Q43.30-14.89 43.81-14.44Q44.32-13.99 44.32-13.29Q44.32-12.59 43.81-12.14Q43.30-11.69 42.49-11.69Q41.68-11.69 41.17-12.14Q40.66-12.59 40.66-13.29ZM54.43-4.81L57.84-4.81Q57.77-3.33 57.04-2.19Q56.31-1.05 54.99-0.43Q53.66 0.20 51.96 0.20L51.96 0.20Q49.16 0.20 47.55-1.63Q45.94-3.46 45.94-6.79L45.94-6.79L45.94-7.49Q45.94-9.58 46.67-11.15Q47.39-12.71 48.76-13.57Q50.13-14.42 51.92-14.42L51.92-14.42Q54.51-14.42 56.08-13.06Q57.66-11.70 57.87-9.31L57.87-9.31L54.45-9.31Q54.41-10.61 53.80-11.17Q53.18-11.74 51.92-11.74L51.92-11.74Q50.64-11.74 50.05-10.78Q49.45-9.82 49.42-7.72L49.42-7.72L49.42-6.72Q49.42-4.44 50.00-3.47Q50.57-2.49 51.96-2.49L51.96-2.49Q53.14-2.49 53.77-3.05Q54.39-3.60 54.43-4.81L54.43-4.81ZM58.91-4.82L58.90-5.38Q58.90-6.96 59.51-8.20Q60.13-9.43 61.28-10.10Q62.43-10.76 63.98-10.76L63.98-10.76Q66.36-10.76 67.72-9.29Q69.09-7.82 69.09-5.29L69.09-5.29L69.09-5.18Q69.09-2.71 67.72-1.25Q66.35 0.20 64.00 0.20L64.00 0.20Q61.75 0.20 60.38-1.16Q59.01-2.51 58.91-4.82L58.91-4.82ZM62.20-5.77L62.19-5.18Q62.19-3.71 62.65-3.03Q63.11-2.34 64.00-2.34L64.00-2.34Q65.76-2.34 65.80-5.05L65.80-5.05L65.80-5.38Q65.80-8.22 63.98-8.22L63.98-8.22Q62.33-8.22 62.20-5.77L62.20-5.77ZM76.99-10.64L76.93-7.59L75.85-7.67Q74.30-7.67 73.86-6.69L73.86-6.69L73.86 0L70.57 0L70.57-10.57L73.65-10.57L73.76-9.21Q74.59-10.76 76.07-10.76L76.07-10.76Q76.60-10.76 76.99-10.64L76.99-10.64ZM83.05 0.20L83.05 0.20Q80.62 0.20 79.11-1.25Q77.61-2.71 77.61-5.03L77.61-5.03L77.61-5.30Q77.61-6.92 78.21-8.16Q78.81-9.40 79.96-10.08Q81.11-10.76 82.70-10.76L82.70-10.76Q84.92-10.76 86.21-9.38Q87.50-8.00 87.50-5.53L87.50-5.53L87.50-4.25L80.96-4.25Q81.13-3.36 81.73-2.85Q82.32-2.34 83.27-2.34L83.27-2.34Q84.83-2.34 85.71-3.44L85.71-3.44L87.22-1.66Q86.60-0.81 85.47-0.31Q84.35 0.20 83.05 0.20ZM82.68-8.22L82.68-8.22Q81.23-8.22 80.96-6.31L80.96-6.31L84.28-6.31L84.28-6.56Q84.30-7.35 83.88-7.79Q83.46-8.22 82.68-8.22Z"></path></g></g></svg>